<svg version="1.2" xmlns="http://www.w3.org/2000/svg" viewBox="0 0 255 55" width="256" height="55"><style>.a{fill:#a5aa98}</style><path fill-rule="evenodd" class="a" d="m4 49.8q-1.5 0-2.6-0.6-1.5-0.8-1.5-2.6 0-1.5 1-2.7 1.1-1.2 2.5-1.2 1 0 1.8 0.7 0.6 0.8 0.6 1.5 0 1.4-1 2.3-0.9 0.8-1.9 0.8-1.1 0-1.8-0.8 0.3 1.2 2.2 1.2 2.9 0 6.8-3.8 1.5-1.4 3.1-3.4 1.7-2 3.4-4.6 1.2-1.7 2.4-3.4 1.1-1.7 2.3-3.5-3.9-6-3.9-11.4 0-3.1 1.4-4.9 1.4-1.9 3.7-1.9 4.2 0 8.8 5.8 5.2-5.4 10.6-9.1 7.3-5 12-5 1.9 0 1.9 0.8 0 0.2-0.2 0.5-12.2 21.8-13.6 29.6-0.1 0.8-0.2 1.4-0.1 0.7-0.1 1.2 0 3.4 2.8 3.4 1.7 0 4.3-4 0.1-2.3 1.5-2.5 1-1.8 2.1-4.1 0.2-0.5 0.5-0.6h0.1q0.2 0 0.2 0.4 0 0.3-0.3 0.8-1 2.1-1.8 3.6 0.4 0.1 0.6 0.4 0.6 0.5 0.6 1.2 0 0.5-0.2 0.7-0.7 0.9-0.7 1.9 0 1 0.6 1.7 0.7 0.7 1.8 0.7 1.1 0 2-0.8 1.3-1.1 1.3-3.1 0-1.7-0.9-3.9-0.4-0.5-1-1.4-0.4-0.9-1.1-2.1-0.4-0.6-0.5-1.3-0.1-0.7-0.1-1.3 0-2.3 1.6-3.6 1.8-1.4 4.5-1.4 0.7 0 1.4 0.1 0.8 0.2 1.4 0.6 1.2 0.9 1.2 2.3 0 0.6-0.2 1.1-0.5 1.4-2.1 1.4-1.8 0-1.8-1.9 0-0.5 0.2-0.9 0.1-0.5 1.2-1.1-0.4-0.7-1.4-0.7-1 0-1.4 0.5-1.3 1.1-1.3 2.8 0 1.2 0.7 2.6 0.1 0.2 2.1 3.4 1.3 2.2 1.3 3.7 0 2.3-2.1 4.1-2.2 1.8-4.6 1.8-2.7 0-4.2-1.6-0.7-0.8-1-1.9-1.4 2-2.7 3-1.5 1.2-3 1.2-1.8 0-3.5-1.4-2.1-1.9-2.3-5.2-1.5-8.9-6.5-15.1-1.7 1.8-3.6 4.2-1.9 2.5-4.1 5.5 2.5 4 5.7 7.3 3.2 3.4 7.2 6.1 0.4 0.2 0.4 0.5 0 0.4-0.4 0.4-0.1 0-0.5-0.1-1.5-0.9-3.1-2.2-1.6-1.3-3.4-3-2-1.8-3.7-3.7-1.7-1.9-3.2-3.9-3.6 5.2-5.8 8.1-2.1 3-2.7 3.8-4.5 5.5-7.6 6.3-1.1 0.3-2.2 0.3zm33.9-18.3q0.3-1.4 0.9-2.9 0.6-1.6 1.5-3.2 4.7-8.3 9.4-15.2 0.5-0.7 0.5-1.3 0-0.7-1-0.7-3.1 0-8.9 4-2.3 1.6-4.3 3.3-1.9 1.6-3.6 3.3 3.7 5.5 5.5 12.7zm-15.6-3.2q2.1-2.9 4-5.3 1.9-2.3 3.5-4.2-3.4-3.6-6-3.6-1.6 0-2.6 1.5-0.9 1.5-0.9 3.9 0 3.7 2 7.7zm40.2 13.1q1.9-4.2 5.3-12.1 3.5-7.9 8.5-19.4 0.1-0.1 0.1-0.3 0-0.1 0-0.3 0-0.8-0.6-1.6h2.9q1.5 0 1.5 0.7 0 0.4-0.3 1.1-1.7 3.6-4.3 9.5-2.7 5.9-6.4 14.1 0.9-1.1 2-2.3 1.1-1.2 2.5-2.5 1-0.9 2.2-1.7 1.2-0.9 2.6-1.6 3.2-1.8 4.7-1.8 0.4 0 0.5 0.1-0.8 1.5-1.6 2.9-0.7 1.4-1.3 2.6-3.2 6.1-3.5 8.4-0.2 0.8-0.2 1.4 0 1.5 1.1 1.5 1.4 0 3.9-3.6l0.8 0.4q-2.8 4.3-5.5 4.3-3.4 0-3.4-3.5 0-2.9 3.5-8.5 0.5-0.9 0.5-1.5 0-0.6-0.6-0.6-0.6 0-1.6 0.6-0.9 0.6-2.2 1.8-2 1.9-3.9 4.6-1.7 2.7-3.3 6.1-0.4 0.9-1.7 0.9-1.8 0.1-2.2 0.3zm26.5-0.4h-2.7q-1.6 0-1.6-1.6 0-0.9 0.7-2.6l10.5-26.9q0.1-0.1 0.1-0.3 0-0.1 0-0.2 0-0.9-0.7-1.7h3q1.5 0 1.5 0.7 0 0.3-0.4 1.1l-10.4 26.7q-0.8 1.8-0.8 3.1 0 1.3 0.8 1.7zm9.8 0.2q-2.1 0-3.7-1.3-0.8-0.8-1.2-1.8-0.3-1-0.3-2.3 0-5 4.1-9.9 3.5-4.2 7.2-4.2 1.3 0 2.1 0.7 1 0.7 1 1.9 0 3-4 6-1.2 0.9-3.3 1.6-2.3 0.8-3.3 0.8-0.7 1.8-0.7 3.9 0 3.5 2.5 3.5 3.5 0 6.4-4.5l0.2-0.3 1 0.4-0.2 0.3q-1.3 2.7-3.4 4-2.1 1.2-4.4 1.2zm-1.1-9.5q1 0 2.6-0.5 0.9-0.4 1.7-0.9 0.9-0.4 1.5-0.9 3-2.5 3-5.3 0-1.2-0.9-1.2-1.5 0-4.6 3.8-1.5 1.9-3.3 5zm9.4 23.4q-2.9 0-4.3-1.9-0.6-0.9-0.6-2.4 0-1.2 0.3-1.7l1-0.1q-0.3 0.9-0.3 1.7 0 2.9 3.4 2.9 3 0 6.2-4.6 1.2-1.8 2.4-4.2 1.2-2.4 2.5-5.6 0.9-2 1.6-4.1 0.8-2.1 1.6-4.1-1.4 2.5-2.3 4-1 1.6-1.4 2.2-2.8 3.8-5.5 3.8-3 0-3-3.9 0-2.6 1.1-5.6 1.8-4.2 3.6-7.9 0.6-1.2 2.1-1.2h2.8q-1.5 1.1-3.2 4.6-3.7 7.6-3.7 10.9 0 1.7 1.3 1.7 2.4 0 6.3-6.7 0.3-0.6 1.4-2.9 1.2-2.4 3.2-6.5 0.6-1.1 2.1-1.1h3.5q-0.7 0.5-2 1.9-0.4 0.7-1.1 1.9-0.6 1.1-1.3 2.7-0.8 2.1-2.2 5.8-1.5 3.6-3.7 8.8-1.1 2.7-2.2 4.6-1.1 1.9-2 3.1-3.2 3.9-7.6 3.9zm31.8-11q-4.5 0-4.6-3.5 0-1.5 0.9-2.7 1-1.3 2.4-1.3 1 0 1.8 0.9 0.5 0.6 0.5 1.6 0 2.7-2.4 2.7-1.3 0-1.9-1.1 0.3 2 3.2 2 0.6 0 1.1-0.2 4.8-1.2 8.2-5.3 1.5-1.9 3.4-5.1 1.9-3.3 4.2-8l7.8-15.9q0.7-1.3 1.5-2.3 0.9-1 1.7-1.9-2 0.1-4.2 0.5-2.3 0.5-4.7 1.3-4.9 1.7-7.7 3.9-5.2 4.1-5.2 7.7 0 2.2 2.5 2.2 2.8 0 6-1.9 1.4-0.8 2.6-1.9 1.3-1.1 2.3-2.3 0.2-0.2 0.3-0.2 0.4 0 0.4 0.3 0 2.1-5.1 4.8-4.8 2.6-7.2 2.6-5.1 0-5.1-3.9 0-1.7 1.3-3.7 3.3-4.8 11.3-7.7 6.8-2.5 13.4-2.6 3.5-2.9 7.1-2.9 1.4 0 2.8 0.6 0.3 0.1 0.3 0.4 0 0.7-0.4 0.5-1-0.5-2.2-0.5-2.6 0-5 2 4.6 0.4 6.8 2.5 1.9 1.7 1.9 4.4 0 2.1-1.1 4.2-1 2-3 3.9-4 3.9-9.7 4.6 0.4 1.5 1 3.4 0.6 1.8 1.6 4 2.5 5.8 4.9 7.7 2.4 1.9 4.8 1.9 1.9 0 3-1.2 1.2-1.3 1.2-3.7 0-4-3.1-8.5-0.3-0.4-0.3-0.6 0-0.3 0.2-0.3 0.2 0 0.5 0.4 4 4.8 4 9.5 0 3.2-2.1 5.3-2.2 2-5.1 2-3.6 0-6.2-3.1-3.4-4.1-5.5-17.6 4.5-0.5 7.9-4.1 3.4-3.6 3.4-7.6 0-2.3-1.2-3.9-1.6-1.9-4.8-2.3-2 2-3.2 5.2l-5.2 13.3q-1 2.6-3.3 6.9-1.2 2.4-2.9 4.7-1.8 2.2-4.1 4.4-6.1 5.5-11.7 5.5zm54.4-24q-1.8 0-1.8-1.8 0-1.8 1.7-1.8 1.9 0 1.9 1.8 0 1.8-1.8 1.8zm-4.6 20.9h-2.7q-1.6 0-1.6-1.6 0-0.9 0.7-2.6 1.4-3.5 2.6-6.4 1.3-2.9 2.3-5.3 0.2-0.3 0.2-0.6 0-0.8-0.7-1.6l3-0.1q1.5 0 1.5 0.8 0 0.2-0.1 0.5-0.1 0.2-0.3 0.6l-5 11.5q-0.7 1.8-0.7 3.1 0 1.3 0.8 1.7zm4.8 14.1q-2.9 0-4.3-1.9-0.6-0.9-0.6-2.4 0-1.2 0.3-1.7l1-0.1q-0.3 1-0.3 1.7 0 2.9 3.5 2.9 3.1 0 6.3-5 1-1.4 1.9-3.4 1-2 1.8-4.5 0.6-1.6 1.2-3.2 0.5-1.7 1.1-3.4-1.9 3.2-3.9 5.1-2 1.9-3.6 1.9-1.4 0-2.2-1.3-0.9-1.2-0.9-3.3 0-5.1 4.6-10.6 0.7-0.9 1.7-1.7 1-0.7 2.1-1.3 2.4-1.2 4.5-1.2 2.7 0 4.2 1.7 0.4 0.4 0.4 0.9 0 0.9-1 0.7-0.5-2-2.4-2-2.3 0-5.4 3.2-2.3 2.4-4 5.2-2.2 3.8-2.2 6.3 0 1.8 1.3 1.8 1.6 0 3.7-2.3 2.2-2.7 4.8-7.6 1-2 1.6-2.7 0.9-0.8 2.1-0.8l1.1 0.2q0.7 0.1 1.2 0-0.4 0.4-0.8 0.9-0.4 0.4-0.6 0.8-0.5 0.8-1.1 2-0.6 1.1-1.2 2.7-0.7 1.6-1.3 3.2-0.5 1.6-1.1 3-1.3 3.5-2.5 6-1.1 2.5-2 4.2-0.6 1.2-1.5 2.2-0.9 1-2 1.8-2.6 2-5.5 2zm18 0q-2.9 0-4.3-1.9-0.6-0.9-0.6-2.4 0-1.2 0.3-1.7l1-0.1q-0.3 1-0.3 1.7 0 2.9 3.5 2.9 3.1 0 6.3-5 1-1.4 1.9-3.4 1-2 1.8-4.5 0.6-1.6 1.2-3.2 0.5-1.7 1.1-3.4-1.9 3.2-3.9 5.1-2 1.9-3.6 1.9-1.4 0-2.2-1.3-0.9-1.2-0.9-3.3 0-5.1 4.6-10.6 0.7-0.9 1.7-1.7 1-0.7 2.1-1.3 2.4-1.2 4.5-1.2 2.7 0 4.2 1.7 0.4 0.4 0.4 0.9 0 0.9-1 0.7-0.5-2-2.4-2-2.3 0-5.4 3.2-2.3 2.4-4 5.2-2.2 3.8-2.2 6.3 0 1.8 1.3 1.8 1.6 0 3.7-2.3 2.2-2.7 4.8-7.6 1-2 1.6-2.7 0.9-0.8 2.1-0.8l1.1 0.2q0.7 0.1 1.2 0-0.4 0.4-0.8 0.9-0.4 0.4-0.6 0.8-0.5 0.8-1.1 2-0.6 1.1-1.2 2.7-0.7 1.6-1.3 3.2-0.5 1.6-1.1 3-1.3 3.5-2.5 6-1.1 2.5-2 4.2-0.6 1.2-1.5 2.2-0.9 1-2 1.8-2.6 2-5.5 2zm23.5-14.1h-2.7q-1.6 0-1.6-1.6 0-0.9 0.7-2.6l10.5-26.9q0.1-0.1 0.1-0.3 0-0.1 0-0.2 0-0.9-0.7-1.7h3q1.5 0 1.5 0.7 0 0.3-0.4 1.1l-10.4 26.7q-0.8 1.8-0.8 3.1 0 1.3 0.8 1.7zm10.8 0.2q-2.1 0-3.7-1.3-0.8-0.8-1.2-1.8-0.3-1-0.3-2.3 0-5 4.1-9.9 3.5-4.2 7.2-4.2 1.3 0 2.1 0.7 1 0.7 1 1.9 0 3-4 6-1.2 0.9-3.3 1.6-2.3 0.8-3.3 0.8-0.7 1.8-0.7 3.9 0 3.5 2.5 3.5 3.5 0 6.4-4.5l0.2-0.3 1 0.4-0.2 0.3q-1.3 2.7-3.4 4-2.1 1.2-4.4 1.2zm-1.1-9.5q1 0 2.6-0.5 0.9-0.4 1.7-0.9 0.9-0.4 1.5-0.9 3-2.5 3-5.3 0-1.2-0.9-1.2-1.5 0-4.6 3.8-1.5 1.9-3.3 5z"/></svg>